<?xml version="1.0" encoding="UTF-8"?>
<svg id="Layer_1" data-name="Layer 1" xmlns="http://www.w3.org/2000/svg" viewBox="0 0 484.62 467.03">
  <defs>
    <style>
      .cls-1 {
        letter-spacing: 0em;
      }

      .cls-2 {
        font-size: 65.81px;
      }

      .cls-2, .cls-3 {
        fill: #fff;
      }

      .cls-2, .cls-4 {
        font-family: MyriadPro-Regular, 'Myriad Pro';
      }

      .cls-5 {
        letter-spacing: 0em;
      }

      .cls-6 {
        letter-spacing: 0em;
      }

      .cls-7 {
        fill: #00bae5;
      }

      .cls-7, .cls-3, .cls-8, .cls-9 {
        stroke-width: 0px;
      }

      .cls-10 {
        letter-spacing: 0em;
      }

      .cls-11 {
        letter-spacing: -.03em;
      }

      .cls-12 {
        letter-spacing: 0em;
      }

      .cls-13 {
        letter-spacing: 0em;
      }

      .cls-14 {
        letter-spacing: .02em;
      }

      .cls-8 {
        fill: #042032;
      }

      .cls-9 {
        fill: #004055;
      }

      .cls-4 {
        fill: #0588ca;
        font-size: 25.42px;
      }
    </style>
  </defs>
  <ellipse class="cls-9" cx="242.31" cy="233.52" rx="242.31" ry="233.52"/>
  <g>
    <path class="cls-7" d="m102.19,264.9l2.32,3.38-.16,5.57c-.05,1.35-1.84,1.35-1.89,0l-.27-8.96Z"/>
    <g>
      <path class="cls-3" d="m108.73,170.91c-.54.13-1.07.37-1.57.69l-1.45.93-1.17-.85c-.97-.7-2.18-.74-3.18-.1l-14.43,9.29c-.95.62-1.54,1.76-1.54,2.99v9c0,1.2.54,2.29,1.44,2.91l12.76,9.14-2.72,1.74-11.57-8.16c-1.72-1.23-2.76-3.33-2.76-5.64v-9c0-2.38,1.13-4.58,2.97-5.76l14.42-9.29c1.92-1.25,4.27-1.17,6.14.18l2.65,1.92Z"/>
      <path class="cls-3" d="m122.64,194.44l-.19,7.94c-.09,2.19-1.1,4.22-2.76,5.39l-13.99,9.99c-.96.68-2.07,1.02-3.15,1.02s-2.16-.32-3.1-.98l-3.52-2.45.02-.02c.64-.14,1.26-.38,1.84-.76l1.27-.82,1.88,1.31c.99.7,2.27.66,3.24-.02l14.01-9.99c.85-.62,1.38-1.65,1.42-2.79l.19-7.94c.04-1.15-.44-2.25-1.29-2.93l-1.19-.94-10.5-8.22-1.79-1.41,2.73-1.75,1.74,1.35.99.78,3.63,2.85,4.92,3.86,1.1.86c1.63,1.29,2.59,3.4,2.51,5.65Z"/>
      <path class="cls-3" d="m122.43,183.83v2.67c0,.46,0,.92-.05,1.37-.23-.3-.48-.54-.76-.76l-1.29-.98-.76-.62v-1.81c0-1.21-.55-2.35-1.49-2.95l-2-1.33-.94-.64-3.1-2.07-.6-.4c-.96-.62-2.13-.62-3.08-.02l-14.77,9.47c-.99.64-1.58,1.79-1.58,3.03v8.44l-2.85-1.97v-6.47c0-2.39,1.15-4.6,2.96-5.79l14.8-9.45c1.86-1.19,4.09-1.17,5.95.02l1.33.88,2.11,1.39,3.21,2.13c.44.28.85.64,1.29.94,1.47,1.05,1.63,3.16,1.63,4.92Z"/>
      <path class="cls-3" d="m115.46,191.12v6.07c0,2.37-1.14,4.58-2.98,5.77l-14.71,9.44c-.91.6-1.92.89-2.93.89-1.09,0-2.17-.34-3.12-1l-6.38-4.45c-1.75-1.22-2.79-3.33-2.79-5.66v-3.93c.43.62.94,1.17,1.55,1.6l1.3.91v1.42c0,1.21.54,2.29,1.43,2.93l6.4,4.45c.95.67,2.15.69,3.12.07l14.72-9.46c.94-.61,1.54-1.75,1.54-2.98v-8.29h0l2.84,2.22Z"/>
    </g>
    <path class="cls-7" d="m141.77,196.82c-6.8,13.87-19.39,23.65-34.11,25.24-1.01.12-1.81,1.07-1.84,2.23l-.71,23.75-3.56-4.54-.5-16.6-.05-2.17-.02-.44c-.04-1.15-.83-2.11-1.84-2.23-1.15-.12-2.3-.3-3.44-.54-.35-.06-.69-.14-1.04-.22-.48-.1-.94-.22-1.42-.34-.02,0-.02-.02-.04-.02-.41-.1-.81-.22-1.2-.34-11.6-3.5-21.3-12.22-26.97-23.79-.76-1.55.25-3.46,1.82-3.46h73.08c1.58,0,2.59,1.91,1.82,3.46Z"/>
    <g>
      <path class="cls-8" d="m99.61,204.26l-2.71,1.75-11.56-8.16c-1.45-1.04-2.41-2.65-2.67-4.5h2.92c.23.74.67,1.35,1.28,1.77l12.75,9.14Z"/>
      <path class="cls-8" d="m122.67,193.8l-.21,7.94c-.09,2.19-1.1,4.24-2.74,5.39l-14.01,9.99c-.94.68-2.05,1.04-3.15,1.04s-2.16-.34-3.1-1l-3.51-2.43.02-.04c.62-.14,1.24-.36,1.82-.76l1.28-.82,1.88,1.31c1.01.7,2.27.68,3.24-.02l14.03-9.99c.85-.6,1.36-1.65,1.4-2.79l.21-7.92c0-.12,0-.24-.02-.36h2.85c.02.14.02.3.02.44Z"/>
      <polygon class="cls-8" points="92.01 193.36 92.01 196.62 89.16 194.63 89.16 193.36 92.01 193.36"/>
      <path class="cls-8" d="m115.48,193.36v3.2c0,2.37-1.15,4.58-2.99,5.77l-14.7,9.43c-.9.6-1.91.88-2.92.88-1.1,0-2.18-.34-3.13-1l-6.38-4.44c-1.75-1.23-2.78-3.34-2.78-5.67v-3.92c.42.62.94,1.15,1.54,1.59l1.29.92v1.41c0,1.21.55,2.29,1.43,2.95l6.41,4.44c.94.68,2.14.7,3.12.08l14.72-9.47c.94-.6,1.54-1.73,1.54-2.97v-3.2h2.85Z"/>
    </g>
    <path class="cls-3" d="m131.35,173.08c-4.73-4.3-12.18-1.51-16.26,2.47-.3.3-.6.6-.9.9l2.11,1.39c1.96-3.11,6.84-4.62,9.74-3.88,3.55.9,4.48,5.67,3.47,9.3-.85,3.03-2.64,5.53-3.86,8.32h5.47c.51-.92.92-1.91,1.26-2.69,2.05-4.84,3.21-11.94-1.03-15.8Z"/>
    <path class="cls-3" d="m170.46,193.37l-.44,2.25c-.58,3.03-1.72,6.05-3.42,8.54-1.63,2.49-3.42,4.82-5.31,7.07-1.88,2.27-4.02,4.2-6.02,6.27l-6.13,6.11,5.93-6.35c1.95-2.15,4.04-4.14,5.81-6.45,3.51-4.64,7.24-9.39,8.06-15.47.21-1.45.73-3.1.46-4.22-.12-.56-.48-.92-1.03-1.21-.53-.28-1.2-.56-1.72-.62-1.15-.1-2.41.48-3.75.92-1.4.48-2.82.56-4.18.7-1.38.12-2.78.18-4.2.1-.71-.06-1.42-.12-2.21-.38-.99-.44-1.38-1.05-1.93-1.61-1.97-2.33-3.58-4.78-5.33-7.13-.87-1.15-1.74-2.31-2.66-3.38-.89-.98-2.04-2.09-2.94-3.3-1.84-2.43-3.36-5.08-4.68-7.88-.64-1.41-1.22-2.87-1.63-4.48-.11-.4-.19-.8-.27-1.23-.04-.26-.07-.42-.11-.52l-.09-.38c-.21-.58-.51-1.17-.85-1.77-1.43-2.39-3.29-4.6-5.22-6.67-1.93-2.03-4.04-4.1-6.14-5.43-1.91-1.09-4.68-.88-7.31-.64l-2.07.18c-.74.02-1.38.14-2.46-.1-1.12-.36-1.58-.78-2.23-1.15l-1.77-1.17c-1.15-.74-2.32-1.47-3.44-1.95-.57-.24-1.13-.44-1.59-.48-.23,0-.18-.02-.37.06-.12.02-.34.18-.53.32-.85.66-1.75,1.77-2.71,2.91-1.01,1.07-1.89,2.43-3.91,3.26-.28.06-.57.14-.87.16-.3,0-.62-.02-.94-.08-.48-.12-.9-.3-1.33-.52-.81-.44-1.49-1.04-2.09-1.69-1.15-1.31-1.97-2.85-2.57-4.46-.58-1.57-.92-3.4-1.03-5-.05-.58-.14-.58-.16-.58-.05-.06-.51-.2-1.06-.22-2.37.02-5.24.54-7.99.76-1.38.12-2.78.2-4.18.26-1.27.08-2.51.18-3.67.52-2.37.58-4.11,2.15-6.18,4.24-2.04,2.11-4.62,4.18-7.38,5.33-1.45.64-2.64,1.05-3.86,1.61-1.22.52-2.41,1.15-3.58,1.79-2.37,1.31-4.55,2.91-7.07,4.5-1.28.78-2.67,1.59-4.37,1.95-.99.2-1.35.2-1.88.38-.48.14-.94.36-1.35.66-.87.56-1.61,1.45-2.37,2.57l-1.15,1.79-.62.98-.32.5c-.09.16-.04.12-.07.18-.25.4-.35,1.91-.23,3.24.09,1.39.28,2.87.5,4.34.21,1.49.46,3.01.66,4.6.11.82.18,1.63.21,2.57.02.48.02.96-.05,1.57-.05.32-.12.7-.19,1l-.23.68c-.66,1.75-1.4,3.03-1.95,4.28s-.96,2.45-1.2,3.74c-.12.64-.21,1.27-.27,1.95-.02.32,0,.52,0,.78s.05.56.09.84c.18,1.15.62,2.43,1.15,3.66,1.03,2.41,2.5,4.84,4.04,6.93,1.58,1.39,3.26,2.53,5.01,3.03,1.82.54,3.7.42,5.7-.16,2-.56,3.98-1.63,6.53-2.51.6-.24,1.36-.38,2.09-.52.81-.06,1.61-.14,2.53.1l.67.16.44.16.89.34,1.74.72c2.28,1.02,4.11,1.89,6.16,2.27,1.03.22,2.09.36,3.17.44l1.7.1c.67.06,1.33.1,2.11.28l.55.12.64.24.64.26c.25.14.5.3.73.46.46.26,1.03.96,1.42,1.57.18.36.34.74.46,1.11.12.4.14.72.19,1.07.04.38.04.68.02.96-.02.26-.04.58-.07.82-.09.44-.18.96-.28,1.31-.19.78-.42,1.43-.64,2.07-.41,1.23-.78,2.35-1.03,3.42l-.16.78c-.07.3.02.3-.02.46-.04.12-.02.3.04.48.05.2,0,.34.11.58.46,1.73,1.66,3.84,2.96,5.87,1.33,2.05,2.78,4.1,4.16,6.45.71,1.15,1.38,2.43,1.97,3.98l.39,1.25c.11.5.19,1,.25,1.51.09.82.11,1.35.14,2.09.07,1.33.16,2.91-.16,4.72-.34,1.79-.85,3.05-1.28,4.28l-.32.92-.16.44c-.05.14-.11.3-.11.34,0,.1-.02.18-.05.26.02.18.02.34,0,.52.04.76.23,1.77.58,2.81.67,2.09,1.72,4.26,2.87,6.35,1.17,2.11,2.46,4.14,3.84,6.09.69.98,1.4,1.93,2.13,2.83.37.48.71.82,1.12,1.31.48.58.96,1.15,1.38,1.75,3.35,4.88,4.82,10.25,6.5,14.99l.62,1.73c.11.26.23.62.32.78l.23.48c.32.6.67.92,1.19,1.17,1.01.54,2.89.48,4.75-.12.46-.14.94-.3,1.42-.48.12-.04.14-.08.18-.12.04,0,.19-.22.28-.28.53-.48,1.19-1.41,1.77-2.29,1.17-1.87,2.21-4.02,3.12-6.23.9-2.19,1.66-4.48,2.18-6.77.51-2.27.87-4.6.78-6.63l-.16-1.41c-.09-.44-.23-.78-.3-1.19-.35-.9-.8-1.85-1.36-2.77-1.1-1.81-2.51-3.5-4.13-5.12-1.59-1.63-3.36-3.16-5.21-4.72-1.82-1.55-3.84-3.2-5.72-5.21-1.89-1.99-3.7-4.44-4.94-7.4-1.28-2.93-1.68-6.55-1.52-9.47.21-4.54,1.29-8.76,2.8-12.66,1.03.32,3.75,1.11,5.58,1.35.67.08,1.12.3,1.4.6-1.56,3.62-2.64,7.42-2.82,11.09-.09,2.29.11,4.02.85,5.85.73,1.77,1.89,3.48,3.38,5.08,2.94,3.16,7.08,6.09,10.73,9.89,1.86,1.87,3.65,4.02,5.15,6.55.76,1.27,1.4,2.65,1.97,4.14.23.86.5,1.73.66,2.59.09.82.19,1.65.25,2.47.12,3.22-.39,6.11-1.03,8.9-.67,2.77-1.56,5.41-2.62,7.94-1.06,2.55-2.27,5.02-3.81,7.4-.81,1.19-1.58,2.35-2.85,3.56-.35.3-.55.58-1.1.92-.25.14-.5.3-.74.44-.25.14-.53.28-.64.32-.64.24-1.27.46-1.93.64-1.31.38-2.69.66-4.2.68-1.49.02-3.13-.2-4.76-1.02-1.63-.8-3.1-2.29-3.97-3.94-.21-.42-.39-.84-.58-1.25-.18-.42-.25-.68-.39-1.04l-.67-1.91c-1.65-4.98-3.06-9.79-5.44-13.28-.3-.44-.6-.82-.92-1.19-.37-.48-.89-1.04-1.28-1.55-.83-1.05-1.61-2.11-2.36-3.2-1.49-2.17-2.89-4.42-4.16-6.79-1.26-2.37-2.44-4.84-3.33-7.66-.44-1.41-.81-2.99-.87-4.84,0-.48.02-.98.04-1.45.11-.56.23-1.11.37-1.65.09-.32.14-.44.19-.58l.16-.46.34-.92c.44-1.19.87-2.35,1.01-3.12.16-.76.16-1.83.11-3.1-.04-.58-.05-1.35-.11-1.81-.04-.14-.05-.28-.05-.44l-.19-.6c-.32-.86-.81-1.87-1.4-2.89-1.17-2.03-2.6-4.1-3.98-6.31-1.36-2.23-2.82-4.54-3.7-7.84-.12-.38-.16-.9-.23-1.35-.07-.46-.12-.92-.07-1.47.04-.48.05-1.15.14-1.47l.23-1.13c.35-1.47.83-2.81,1.24-4,.21-.6.41-1.15.53-1.63.05-.16.07-.28.05-.4l-.3-.06c-.37-.1-.89-.14-1.36-.18l-1.79-.16c-1.24-.1-2.48-.28-3.75-.56-2.55-.52-5.05-1.73-7.07-2.67l-1.54-.68-.76-.3-.39-.14c-.05,0-.12-.02-.19-.02-.19-.1-.57-.06-.92-.06-.41.1-.81.14-1.31.32-1.91.62-4.2,1.79-6.71,2.47-2.51.72-5.42.9-8.11.04-2.71-.82-4.99-2.49-6.99-4.32l-.16-.14-.11-.18c-1.88-2.61-3.44-5.23-4.75-8.3-.64-1.53-1.19-3.16-1.49-5.04-.04-.48-.11-.94-.12-1.45,0-.5-.02-1.05.04-1.51.09-.86.19-1.73.37-2.59.35-1.71.96-3.4,1.65-4.88.67-1.49,1.43-2.81,1.82-3.88l.14-.4c0-.08,0-.1.02-.14.02-.14.04-.44.02-.72,0-.62-.07-1.31-.14-2.03-.18-1.45-.41-2.97-.6-4.5-.21-1.55-.41-3.12-.5-4.8-.04-.86-.04-1.73.02-2.65.11-.96.19-1.95.76-3.14.14-.28.34-.66.44-.82l.3-.42.58-.9c.39-.62.8-1.27,1.26-1.93.9-1.29,2.04-2.71,3.56-3.68.74-.52,1.58-.88,2.41-1.11.8-.26,1.82-.34,2.16-.42,1.01-.18,2.09-.76,3.22-1.43,2.27-1.39,4.69-3.1,7.24-4.48,1.29-.68,2.59-1.35,3.91-1.89,1.33-.58,2.74-1.07,3.86-1.55,2.37-.98,4.34-2.49,6.36-4.5,1.03-.98,2.13-2.07,3.44-3.01,1.31-.96,2.82-1.65,4.32-2.03,1.49-.42,2.98-.52,4.44-.58,1.33-.04,2.66-.1,4-.2,2.71-.14,5.24-.66,8.36-.64.8.08,1.75.1,2.85.9,1.13.84,1.58,2.45,1.58,3.38.09,1.47.32,2.67.76,3.94.42,1.23,1.04,2.39,1.81,3.26.39.44.8.78,1.2,1.02.21.12.42.2.6.26.04-.02.05-.02.07,0,.05,0,.11-.02.16-.02.6-.18,1.63-1.21,2.53-2.27.94-1.07,1.86-2.29,3.28-3.36.39-.26.76-.54,1.29-.7.44-.2,1.2-.24,1.65-.18.9.1,1.65.4,2.36.72,1.42.64,2.66,1.43,3.86,2.23l1.75,1.19c.51.34,1.22.8,1.42.84.28.08,1.01.08,1.63.06l2.02-.14c1.36-.1,2.8-.18,4.25-.08,1.45.12,3.05.34,4.52,1.27,2.64,1.75,4.6,3.86,6.64,6.05,1.97,2.23,3.86,4.54,5.44,7.28.37.7.74,1.45,1.03,2.31.11.42.25,1.09.28,1.35.04.32.11.66.19,1,.32,1.35.83,2.73,1.4,4.06,1.17,2.67,2.6,5.23,4.25,7.52.83,1.17,1.77,2.07,2.8,3.28.96,1.15,1.84,2.37,2.69,3.56,1.72,2.41,3.31,4.94,5.1,7.13.41.5.96,1.09,1.26,1.19.51.2,1.19.28,1.82.34,1.31.12,2.66.1,4,.02,1.33-.12,2.69-.18,3.91-.56,1.27-.36,2.62-1.02,4.23-.88.85.14,1.45.46,2.16.82.67.36,1.42,1.13,1.61,2.11.19.94.07,1.81-.09,2.59Z"/>
  </g>
  <text class="cls-4" transform="translate(187.74 274.87) scale(.89 1)"><tspan class="cls-11" x="0" y="0">V</tspan><tspan x="13.35" y="0">ot</tspan><tspan class="cls-10" x="35.71" y="0">r</tspan><tspan class="cls-12" x="43.77" y="0">e sa</tspan><tspan class="cls-1" x="84.21" y="0">n</tspan><tspan class="cls-6" x="98.22" y="0">t</tspan><tspan x="106.48" y="0">é a po</tspan><tspan class="cls-14" x="170.66" y="0">r</tspan><tspan class="cls-13" x="179.58" y="0">t</tspan><tspan class="cls-12" x="187.84" y="0">ée de main</tspan></text>
  <text class="cls-2" transform="translate(170.65 242.37) scale(.85 1)"><tspan class="cls-5" x="0" y="0">M</tspan><tspan x="53.31" y="0">ediChain.A</tspan></text>
</svg>